<svg xmlns="http://www.w3.org/2000/svg" width="42.325" height="108.606" viewBox="0 0 42.325 108.606">
  <g id="Group_9" data-name="Group 9" transform="translate(-342.596 -518.377)">
    <path id="Path_7" data-name="Path 7" d="M364.523,520.6a10.009,10.009,0,0,0-12.581,0,25.442,25.442,0,0,0-9.346,19.231v40.437a3.606,3.606,0,0,0,3.6,3.6h0v10.783h1.8V583.774a3.606,3.606,0,0,0,3.6-3.594V547.829h-1.8V580.18a1.8,1.8,0,0,1-1.8,1.8h-1.8a1.8,1.8,0,0,1-1.8-1.8V539.742c0-6.74,3.145-13.03,8.716-17.883a8.119,8.119,0,0,1,10.244,0,14.882,14.882,0,0,1,0,23.364,6.21,6.21,0,0,1-7.728,0l-6.2-5.481-1.168,1.348,6.2,5.571a8.1,8.1,0,0,0,10.065,0,16.641,16.641,0,0,0,0-26.06Zm-4.943,19.231a4.053,4.053,0,0,0,3.954-3.415,22.3,22.3,0,0,0,0-6.919,3.972,3.972,0,0,0-3.954-3.415,4.053,4.053,0,0,0-3.954,3.415,22.357,22.357,0,0,0,0,6.919A4.053,4.053,0,0,0,359.58,539.832Zm-2.156-10.155a2.213,2.213,0,0,1,2.156-1.887,2.146,2.146,0,0,1,2.157,1.887,25.226,25.226,0,0,1,0,6.38,2.214,2.214,0,0,1-2.157,1.888,2.145,2.145,0,0,1-2.156-1.888A25.223,25.223,0,0,1,357.424,529.677Zm18.152,23.35a10.006,10.006,0,0,0-12.581,0,16.641,16.641,0,0,0,0,26.06,8.1,8.1,0,0,0,10.065,0l6.2-5.572-1.168-1.348-6.2,5.572a6.213,6.213,0,0,1-7.728,0,14.884,14.884,0,0,1,0-23.364,8.119,8.119,0,0,1,10.244,0,23.252,23.252,0,0,1,8.717,17.882V612.7a1.8,1.8,0,0,1-1.8,1.8h-1.8a1.8,1.8,0,0,1-1.8-1.8v-32.44h-1.8V612.6a3.606,3.606,0,0,0,3.6,3.6v10.783h1.8V616.2h0a3.605,3.605,0,0,0,3.594-3.6V572.167A25.4,25.4,0,0,0,375.576,553.027Zm-7.639,5.392a4.051,4.051,0,0,0-3.953,3.414,22.3,22.3,0,0,0,0,6.92,3.971,3.971,0,0,0,3.953,3.414,4.052,4.052,0,0,0,3.954-3.414,22.3,22.3,0,0,0,0-6.92A4.052,4.052,0,0,0,367.937,558.419Zm2.157,10.154a2.214,2.214,0,0,1-2.157,1.887,2.146,2.146,0,0,1-2.156-1.887,25.223,25.223,0,0,1,0-6.38,2.212,2.212,0,0,1,2.156-1.887,2.145,2.145,0,0,1,2.157,1.887A25.223,25.223,0,0,1,370.094,568.573Z" fill="#fff"/>
  </g>
</svg>
