<svg xmlns="http://www.w3.org/2000/svg" width="92.206" height="69.801" viewBox="0 0 92.206 69.801">
  <g id="Group_11" data-name="Group 11" transform="translate(-559.965 -897.331)">
    <path id="Path_8" data-name="Path 8" d="M645.27,910.828a41.209,41.209,0,0,0-27.728-13.44c-8.771-.707-25.747,5.235-31.264,15-3.254,5.942-4.81,13.722-5.942,19.523-.566,2.97-1.131,6.224-1.839,7.073-12.166,9.9-18.391,15.844-18.532,17.825a1.975,1.975,0,0,0,.424,1.273c1.132,1.132,2.971.99,5.8.707a44.431,44.431,0,0,1,9.054-.283c3.112.142,6.224,1.7,9.619,3.4,4.81,2.4,10.327,5.093,17.967,5.234h.424c12.166,0,23.767-14.288,26.03-17.4,3.113-.141,16.552-1.273,21.786-5.375l.425-.425.141-.566C651.919,942.658,654.466,920.872,645.27,910.828ZM588.683,913.8c4.951-8.771,20.8-14.289,28.718-13.581.566,0,.99.141,1.556.141,2.122,1.556,5.234,9.9,6.083,18.674.708,6.932-1.273,23.2-1.839,27.869a131.256,131.256,0,0,1-24.332-4.244,126.2,126.2,0,0,0-17.118-3.82c.424-1.414.849-3.536,1.415-6.366C584.156,926.955,585.571,919.316,588.683,913.8ZM603.4,964.444h-.283c-7.074-.141-12.167-2.688-16.835-4.951-3.537-1.7-6.932-3.395-10.752-3.678a23.878,23.878,0,0,0-3.112-.142c-2.688,0-4.81.283-6.507.425a16.3,16.3,0,0,1-2.547.141c2.264-2.688,9.62-9.054,16.552-14.713a128.792,128.792,0,0,1,17.966,3.961,122.236,122.236,0,0,0,27.728,4.527C621.928,954.541,612.591,964.444,603.4,964.444Zm45.694-21.786c-3.82,2.4-12.166,3.678-17.4,4.244v-.141l-3.112.283a15.124,15.124,0,0,1-2.547,0c.708-5.093,2.547-21.079,1.84-28.294-.566-5.234-2.264-13.015-4.81-17.542a37.694,37.694,0,0,1,20.23,11.6C650.787,920.872,649.373,939.121,649.09,942.658Z" fill="#fff"/>
  </g>
</svg>
