<svg xmlns="http://www.w3.org/2000/svg" width="68.948" height="73.502" viewBox="0 0 68.948 73.502">
  <g id="Group_4" data-name="Group 4" transform="translate(-481.124 -532.835)">
    <path id="Path_9" data-name="Path 9" d="M541.691,544.02a1.706,1.706,0,0,0-.5-.525,33.062,33.062,0,0,0-24.3-10.66h-2.582A33.063,33.063,0,0,0,490.45,543.01a1.684,1.684,0,0,0-.16.117,1.657,1.657,0,0,0-.1.172,33.028,33.028,0,0,0-9.063,22.719V581.5c0,.046.022.084.026.129-.007.173-.026.342-.026.516v9.476A12.431,12.431,0,0,0,493.54,604.04h.231a5.164,5.164,0,0,0,9.459-2.87V571.452a5.153,5.153,0,0,0-10.021-1.7,12.366,12.366,0,0,0-8.642,3.841v-7.571a29.591,29.591,0,0,1,7.135-19.275l3.622,3.3a1.725,1.725,0,0,0,2.322,0c.73-.664,18.009-16.058,34.982-.02a1.722,1.722,0,0,0,2.072.224l5.15-3.1a29.6,29.6,0,0,1,6.779,18.878v6.423a12.373,12.373,0,0,0-8.974-3.859h-.23a5.164,5.164,0,0,0-9.459,2.87V601.17a5.153,5.153,0,0,0,10.021,1.705,12.424,12.424,0,0,0,12.085-12.4V566.018a33.006,33.006,0,0,0-8.364-21.949C541.7,544.053,541.7,544.035,541.691,544.02Zm-43.628,25.709a1.726,1.726,0,0,1,1.724,1.723V601.17a1.723,1.723,0,0,1-3.447,0V571.452A1.725,1.725,0,0,1,498.063,569.729ZM492.9,573.2v27.375a8.985,8.985,0,0,1-8.329-8.95v-9.476A8.984,8.984,0,0,1,492.9,573.2Zm40.237,29.7a1.725,1.725,0,0,1-1.724-1.723V571.452a1.724,1.724,0,0,1,3.447,0V601.17a1.727,1.727,0,0,1-1.723,1.724Zm13.5-12.42a8.985,8.985,0,0,1-8.33,8.952V572.049a8.985,8.985,0,0,1,8.33,8.95v9.474Zm-12.607-43.842c-16.274-14.357-32.895-3.632-37.474-.131l-2.452-2.235a29.589,29.589,0,0,1,20.211-7.986h2.582a29.615,29.615,0,0,1,20.55,8.293Z" fill="#fff"/>
  </g>
</svg>
