<svg xmlns="http://www.w3.org/2000/svg" width="91.913" height="66.798" viewBox="0 0 91.913 66.798">
  <g id="Group_5" data-name="Group 5" transform="translate(-618.946 -538.65)">
    <path id="Path_10" data-name="Path 10" d="M664.9,550.73a5.44,5.44,0,1,0,5.44,5.44A5.441,5.441,0,0,0,664.9,550.73Zm0,8.691a3.251,3.251,0,1,1,3.251-3.251A3.251,3.251,0,0,1,664.9,559.421Z" fill="#fff"/>
    <path id="Path_11" data-name="Path 11" d="M664.9,572.787a3.4,3.4,0,1,0-3.4-3.4h0A3.4,3.4,0,0,0,664.9,572.787Zm0-4.6a1.207,1.207,0,1,1-1.206,1.207h0A1.206,1.206,0,0,1,664.9,568.186Z" fill="#fff"/>
    <path id="Path_12" data-name="Path 12" d="M664.912,581.767a3.4,3.4,0,1,0-3.4-3.4h0A3.4,3.4,0,0,0,664.912,581.767Zm0-4.6a1.206,1.206,0,1,1-1.207,1.207h0a1.209,1.209,0,0,1,1.207-1.208Z" fill="#fff"/>
    <path id="Path_13" data-name="Path 13" d="M664.922,583.956a3.4,3.4,0,1,0,3.4,3.4h0A3.4,3.4,0,0,0,664.922,583.956Zm0,4.6a1.207,1.207,0,1,1,1.207-1.207h0a1.208,1.208,0,0,1-1.207,1.206Z" fill="#fff"/>
    <path id="Path_14" data-name="Path 14" d="M706.8,543.332H674.688v-1.313a3.5,3.5,0,0,0-7,0v1.313h-5.576v-1.313a3.5,3.5,0,0,0-7,0v1.313H623a4.06,4.06,0,0,0-4.054,4.054v54.008A4.059,4.059,0,0,0,623,605.448h29.557a3.333,3.333,0,0,0,2.832-1.593l1.292-2.128a1.134,1.134,0,0,1,.962-.541h14.519a1.131,1.131,0,0,1,.961.541l1.293,2.128a3.335,3.335,0,0,0,2.832,1.593h29.558a4.059,4.059,0,0,0,4.053-4.054V547.386A4.059,4.059,0,0,0,706.8,543.332Zm-36.925-1.313a1.313,1.313,0,0,1,2.621,0v1.313h-2.621Zm-12.575,0a1.313,1.313,0,0,1,2.621,0v1.313H657.3Zm51.365,59.372a1.867,1.867,0,0,1-1.864,1.865H677.245a1.133,1.133,0,0,1-.961-.541l-1.293-2.123A3.333,3.333,0,0,0,672.159,599H657.64a3.336,3.336,0,0,0-2.83,1.593l-1.291,2.124a1.128,1.128,0,0,1-.961.542H623a1.868,1.868,0,0,1-1.865-1.864V547.386A1.867,1.867,0,0,1,623,545.521h83.8a1.867,1.867,0,0,1,1.864,1.865Z" fill="#fff"/>
    <path id="Path_15" data-name="Path 15" d="M690.073,551.932a15.241,15.241,0,1,0,15.24,15.244h0A15.258,15.258,0,0,0,690.073,551.932Zm0,28.294a13.053,13.053,0,1,1,13.051-13.055v0A13.068,13.068,0,0,1,690.073,580.226Z" fill="#fff"/>
    <path id="Path_16" data-name="Path 16" d="M690.073,562.272a4.9,4.9,0,1,0,4.9,4.9h0A4.907,4.907,0,0,0,690.073,562.272Zm0,7.613a2.712,2.712,0,1,1,2.711-2.713h0A2.714,2.714,0,0,1,690.073,569.885Z" fill="#fff"/>
    <path id="Path_17" data-name="Path 17" d="M692.874,586.506h-3.41a2.381,2.381,0,0,0-2.379,2.378v3.411a2.381,2.381,0,0,0,2.379,2.379h3.41a2.382,2.382,0,0,0,2.38-2.379v-3.411A2.382,2.382,0,0,0,692.874,586.506Zm.191,5.789a.191.191,0,0,1-.191.19h-3.41a.19.19,0,0,1-.19-.19v-3.411a.188.188,0,0,1,.189-.189h3.411a.19.19,0,0,1,.191.188h0Z" fill="#fff"/>
    <path id="Path_18" data-name="Path 18" d="M681.862,586.506H678.45a2.38,2.38,0,0,0-2.378,2.378v3.411a2.381,2.381,0,0,0,2.378,2.379h3.412a2.381,2.381,0,0,0,2.378-2.379v-3.411A2.38,2.38,0,0,0,681.862,586.506Zm.189,5.789a.19.19,0,0,1-.189.19H678.45a.19.19,0,0,1-.189-.19v-3.411a.189.189,0,0,1,.189-.189h3.412a.189.189,0,0,1,.189.188h0Z" fill="#fff"/>
    <path id="Path_19" data-name="Path 19" d="M701.081,583.092a2.992,2.992,0,1,0,2.992,2.992h0A2.993,2.993,0,0,0,701.081,583.092Zm0,3.8a.8.8,0,1,1,.8-.8h0a.8.8,0,0,1-.8.8Z" fill="#fff"/>
    <path id="Path_20" data-name="Path 20" d="M701.081,590.913a2.991,2.991,0,1,0,2.992,2.992h0A2.993,2.993,0,0,0,701.081,590.913Zm0,3.794a.8.8,0,1,1,.8-.8h0a.8.8,0,0,1-.8.8Z" fill="#fff"/>
    <path id="Path_21" data-name="Path 21" d="M639.729,551.932a15.241,15.241,0,1,0,15.243,15.243A15.24,15.24,0,0,0,639.729,551.932Zm0,28.294a13.053,13.053,0,1,1,13.055-13.052h0A13.069,13.069,0,0,1,639.729,580.226Z" fill="#fff"/>
    <path id="Path_22" data-name="Path 22" d="M639.729,562.272a4.9,4.9,0,1,0,4.9,4.9A4.9,4.9,0,0,0,639.729,562.272Zm0,7.613a2.712,2.712,0,1,1,2.714-2.711h0A2.716,2.716,0,0,1,639.729,569.885Z" fill="#fff"/>
    <path id="Path_23" data-name="Path 23" d="M640.338,586.506h-3.41a2.381,2.381,0,0,0-2.379,2.378v3.411a2.381,2.381,0,0,0,2.379,2.379h3.41a2.382,2.382,0,0,0,2.38-2.379v-3.411A2.381,2.381,0,0,0,640.338,586.506Zm.191,5.789a.191.191,0,0,1-.191.19h-3.41a.19.19,0,0,1-.19-.19v-3.411a.189.189,0,0,1,.189-.189h3.411a.19.19,0,0,1,.191.189h0Z" fill="#fff"/>
    <path id="Path_24" data-name="Path 24" d="M651.352,586.506H647.94a2.38,2.38,0,0,0-2.378,2.378v3.411a2.382,2.382,0,0,0,2.378,2.379h3.412a2.382,2.382,0,0,0,2.379-2.379v-3.411A2.381,2.381,0,0,0,651.352,586.506Zm.19,5.789a.191.191,0,0,1-.19.19H647.94a.19.19,0,0,1-.189-.19v-3.411a.189.189,0,0,1,.189-.189h3.412a.189.189,0,0,1,.19.189h0Z" fill="#fff"/>
    <path id="Path_25" data-name="Path 25" d="M628.721,583.092a2.992,2.992,0,1,0,2.992,2.992h0A2.993,2.993,0,0,0,628.721,583.092Zm0,3.8a.8.8,0,1,1,.8-.8h0a.8.8,0,0,1-.8.8Z" fill="#fff"/>
    <path id="Path_26" data-name="Path 26" d="M628.721,590.913a2.991,2.991,0,1,0,2.992,2.992h0A2.993,2.993,0,0,0,628.721,590.913Zm0,3.794a.8.8,0,1,1,.8-.8h0a.8.8,0,0,1-.8.8Z" fill="#fff"/>
  </g>
</svg>
