<svg xmlns="http://www.w3.org/2000/svg" width="97.574" height="78.72" viewBox="0 0 97.574 78.72">
  <g id="Group_3" data-name="Group 3" transform="translate(-149.108 -530.226)">
    <path id="Path_5" data-name="Path 5" d="M155.93,561.69l14.211-2.974a1.523,1.523,0,0,1,1.8,1.179,1.824,1.824,0,0,1,.033.309l0,45.692h51.838V560.2a1.524,1.524,0,0,1,1.524-1.524,1.459,1.459,0,0,1,.431.062l14.091,2.948,3.536-16.323-28.875-11.432a16.6,16.6,0,0,1-4.788,9.583,16.771,16.771,0,0,1-23.678,0,16.6,16.6,0,0,1-4.786-9.582l-28.875,11.432Zm55.563-28.122a88.183,88.183,0,0,1-13.6,1.035,90.927,90.927,0,0,1-13.6-1.042,13.557,13.557,0,0,0,3.9,7.8,13.754,13.754,0,0,0,19.39,0A13.556,13.556,0,0,0,211.493,533.568Zm-28.5-3.3a88.541,88.541,0,0,0,14.9,1.3,85.443,85.443,0,0,0,14.951-1.311l0,0,.03-.005a1.539,1.539,0,0,1,.822.085l32.018,12.674a1.527,1.527,0,0,1,.928,1.739l-4.13,19.062a1.525,1.525,0,0,1-1.8,1.167l-13.855-2.9v45.346a1.526,1.526,0,0,1-1.526,1.524H170.45a1.524,1.524,0,0,1-1.524-1.524V562.076l-13.843,2.9a1.524,1.524,0,0,1-1.81-1.167L149.154,544.8a1.523,1.523,0,0,1,.917-1.788l31.953-12.649a1.512,1.512,0,0,1,.624-.134A1.563,1.563,0,0,1,182.994,530.266Zm33.2,28.624a1.525,1.525,0,1,1,0,3.05h-12.2a1.525,1.525,0,1,1,0-3.05Z" fill="#fff"/>
  </g>
</svg>
